<?xml version="1.0" encoding="utf-8"?>
<!-- Generator: Adobe Illustrator 22.0.1, SVG Export Plug-In . SVG Version: 6.00 Build 0)  -->
<svg version="1.1" id="Layer_1" xmlns="http://www.w3.org/2000/svg" xmlns:xlink="http://www.w3.org/1999/xlink" x="0px" y="0px"
	 viewBox="0 0 37 21" style="enable-background:new 0 0 37 21;" xml:space="preserve">
<style type="text/css">
	.st0{fill:#BE1E2D;}
	.st1{fill:#EC1C24;}
</style>
<title>Asset 2@4x</title>
<desc>Created with Sketch.</desc>
<g>
	<g>
		<polygon class="st0" points="34.7,2.3 18.7,2.3 26.7,10.4 		"/>
		<path class="st0" d="M17.5,10.7V2.4l0,0H0c0,3,0.7,5.9,2,8.4L17.5,10.7L17.5,10.7z"/>
		<path class="st1" d="M27,11.4c-0.1,0.1-0.2,0.1-0.3,0.1l0,0c-0.1,0-0.2,0-0.3-0.1l-7.9-7.9v17.1c9.3-0.4,16.8-8.1,17-17.7L27,11.4
			z"/>
		<path class="st1" d="M17.5,11.6h-15c3.1,5.3,8.6,8.9,15.1,8.9L17.5,11.6z"/>
	</g>
</g>
</svg>
